# xmcd CD database file
#
# Track frame offsets:
#	150
#	40527
#	77825
#	115282
#	148520
#	176585
#	210992
#	244232
#
# Disc length: 3476 seconds
#
# Revision: 0
# Processed by: cddbd v1.5.2PL0 Copyright (c) Steve Scherf et al.
# Submitted via: CDex 1.51
#
DISCID=640d9208
DTITLE=Wahnshuffle, Felix - Blues against racism
DYEAR=1994
DGENRE=Jazz
TTITLE0=Surgin
TTITLE1=Love
TTITLE2=Blues agianst racism
TTITLE3=Is it that
TTITLE4=Very important
TTITLE5=Der Bär
TTITLE6=Softly as in the morning sunrise
TTITLE7=Song of Ong
EXTD=YEAR: 1994
EXTT0=
EXTT1=
EXTT2=
EXTT3=
EXTT4=
EXTT5=
EXTT6=
EXTT7=
PLAYORDER=
